<svg xmlns="http://www.w3.org/2000/svg" viewBox="0 0 532.42 386.79"><defs><style>.cls-40{isolation:isolate}.cls-2{fill:#c2ecfd}.cls-3,.cls-38,.cls-5{fill:none}.cls-3,.cls-5{stroke:#fff;stroke-linecap:round;stroke-linejoin:round;stroke-width:1.74px}.cls-3,.cls-31{opacity:.5}.cls-52{mix-blend-mode:multiply}.cls-7{fill:#ecf8ff}.cls-8{fill:#dff5ff}.cls-9{fill:#d7edfc}.cls-10{fill:#87c0ec}.cls-11{fill:#fff}.cls-13{fill:#5c87c7}.cls-38{stroke-miterlimit:10}.cls-40,.cls-52{opacity:.2}.cls-29{fill:#1e759b}.cls-31{mix-blend-mode:screen}.cls-33{fill:#345375}.cls-36{fill:#4b97b2}.cls-37{fill:#223b51}.cls-38{stroke:#263238;stroke-width:.55px}.cls-39{fill:#407bff}.cls-41{fill:#3c5c85}.cls-42{opacity:.17}.cls-43{fill:#83b2ea;opacity:.29}.cls-44{fill:#e6a897}.cls-45{fill:#d99789}.cls-46{fill:#2f3d6a}.cls-47{fill:#5392b8}.cls-48{fill:#d89a80}.cls-49{fill:#3d3d3d}.cls-55{fill:#adbbdf}.cls-59{fill:#c3e0fd}</style></defs><g style="isolation:isolate"><g id="OBJECTS"><path class="cls-2" d="M376.21 348.61c8.29-16.84 21.67-30.78 36.45-42.1 11.93-9.13 25.42-18 39.54-23.25 12.52-4.66 15.3 6.28 25.41 10 6.47 2.39 13.64-1.27 18.72-5.92 4.9-4.49 8.95-10.13 14.8-13.48 4.32-2.48 10.76-3.72 15.28-1.06 5.63 3.3 4.67 11.41 12.26 12.34 3.54.43 7.07-.84 10.27-2.41a145.28 145.28 0 0 1 23.06-9.45c7.3-2.14 16.76-2.85 21 3.48 4 6.08.21 14.33-4.66 19.77-11.72 13.09-29 20.16-46.46 22.48-4.75.63-9.64 1-14 2.9s-8.26 5.92-8.44 10.71c-.1 2.58.87 5.09.9 7.67.09 7.16-7 12.51-14 14.11-18 4.11-29.66-11.67-46.56-14.09-19.16-2.74-48.64.24-61.95 16.37" transform="translate(-62.26 -46.66)"/><path class="cls-3" d="M407.78 340.73a125.4 125.4 0 0 1 68.77-32.05c16-2.07 32.24-1.08 48.31-2.53s32.74-5.79 44.32-16.51" transform="translate(-62.26 -46.66)"/><path class="cls-2" d="M491.68 269.48c9.57-5.53 19.85-13.23 17.13-25-.89-3.85-3.73-7.36-3.24-11.28.32-2.59 2-4.74 3.3-7a21.35 21.35 0 0 0 1.11-18c-2.48-6.18-7.71-10.83-11-16.63A29.28 29.28 0 0 1 495.3 176c-10.11 1.06-18.84 7.44-28.63 10.19-7.48 2.11-15.47 2.07-22.85 4.5a36.56 36.56 0 0 0-24.47 31.71 20.15 20.15 0 0 0-17.14 7.54 26.12 26.12 0 0 0-5.2 19.66c4.41 28.46 19.05 51.09 37.79 72.2-4.07-4.59 8.44-18.86 10.86-21.64 10.52-12.08 24.95-19 38.75-26.61 2.19-1.26 4.71-2.55 7.27-4.07Z" transform="translate(-62.26 -46.66)"/><g style="opacity:.5"><path class="cls-5" d="M437.07 283.54c-2.38-12.2.81-24.77 4.71-36.57 3.81-11.51 8.36-22.86 14.93-33s15.28-19.19 26-24.79" transform="translate(-62.26 -46.66)"/><path class="cls-5" d="M440.3 200.65a99.72 99.72 0 0 0 5.7 34.66m1.67-4.12c11.81-9.2 30.65-15.85 45.6-16.36m-76.07 21.22c15.68 5 18.33 27.13 19.31 33.4m2.82-14.45c10.8-9.34 29.37-19.31 41.94-17.35m-44.22 44.75c8.58-11.43 32-25.41 44.58-23.45M465.4 192.6a18.3 18.3 0 0 0-2.81 13.27m3.01-3.43c5.07-3.21 12.13-4.49 19.93-3.28" transform="translate(-62.26 -46.66)"/></g><path class="cls-2" d="M297.32 369.12c-12.95-35.46-46.15-68.56-78.85-87.45-8-4.61-19.6-8.09-23.26 2.91-2.35 7.07-10.58 5.23-15.29 2-5.84-4.05-9.24-10.63-14.19-15.58a27.18 27.18 0 0 0-14.61-8c-5.56-.9-11.61.55-15.69 4.44-3.09 2.94-4.94 7.09-8.37 9.65-5.74 4.28-14.09 2.69-20.2-1.06S96 266.78 90 262.74s-13.89-6.42-20.19-3c-8.35 4.53-9.11 16.58-5.57 25.39 2.19 5.44 5.65 13.33 9.8 17.59 5.91 6.05 14.49 10.07 22.7 11.68 6 1.19 12.3 1.16 18.3 2.58 2.17.52 4.66 1.43 5.09 3.93.63 3.61-3.83 5.81-6.44 7.13-4.5 2.27-9 7.22-6.86 11.81 1.32 2.87 4.69 4.16 7.81 4.69 9.37 1.59 18.67-1.11 27.55-3.85 5.41-1.67 10.15-5.05 15.7-6.48 2.88-.75 10.27-1.08 9.47 3.8a6.68 6.68 0 0 1-2.51 3.77 27.42 27.42 0 0 0-3.47 3.06c-4.26 5.18 0 11.29 5.56 12.63 4.3 1 8.79-.07 13.1-1.07 28.15-6.58 57.67-9.12 86-3.38 6 1.22 12.63 3.28 15.66 8.65" transform="translate(-62.26 -46.66)"/><path class="cls-3" d="M267 346.77a139.77 139.77 0 0 0-76.8-35.4c-17.85-2.24-35.94-1.06-53.86-2.6s-36.51-6.31-49.47-18.2" transform="translate(-62.26 -46.66)"/><path d="M273.4 349.52s-49.24-32.75-63.14-66c9.39 2.54 15.46 5.59 22.05 11 7.12 10.05 24.05 25.47 35.54 35.47 1.63 5.48 3.47 11.92 5.55 19.53Z" transform="translate(-62.26 -46.66)" style="mix-blend-mode:multiply;fill:#eecab0;opacity:.25"/><path class="cls-2" d="M271.53 338.27c-1.84-11.57-6.94-23-8.94-34.81-3.21-18.85-3.71-37.8-.22-56.53 3-16 7.9-32.67 2.49-48.83-1.43-4.29-4.08-8.92-9.64-8.88a9.21 9.21 0 0 0-6 2.38c-4 3.59-4.8 8.76-5.46 13.7l-2.21 16.51c-.71 5.37-8.89 6-10.53.78v-.13c-1.34-4.39-1.1-9-.75-13.55.78-9.85 2-19.77.52-29.58-1.82-11.87-8.33-23.91-21-28.37a23.32 23.32 0 0 0-14-.48c-12.7 3.63-15.27 15.6-12.72 25.63 1.79 7.06 5.77 13.46 9.41 19.89 8.89 15.7 4.09 30.63 6.32 48.19 4.69 37.2 41.09 73.16 72.73 94.08Z" transform="translate(-62.26 -46.66)"/><path class="cls-3" d="M202 172c26.6 32.19 17 108.19 63.35 149.21" transform="translate(-62.26 -46.66)"/><path class="cls-3" d="M253.91 209.82c3 16.27-7.42 34.53-9.84 44.65S240.36 281.84 243 292" transform="translate(-62.26 -46.66)"/><path class="cls-7" d="M177.51 368.79c-1.15-6.5-19.31-47.06-40.34-36.2-12.49 6.45-10.24 30.21 9.27 48.15-3.83-3.7-8.26-7.9-13.48-8.94a10.41 10.41 0 0 0-8.39 2.69c-1.88 1.74-2.44 4.48-2.52 7a27.7 27.7 0 0 0 12.34 23.71c-4.32-2.41-8.06-5.43-13-5.86-1.6-.13-4.31.78-5 2.21s-.75 7.36 8.75 11.71c-38.72-7.35-41 9.16-27.06 9.16H212.2" transform="translate(-62.26 -46.66)"/><path class="cls-8" d="M250.07 336.59c-1.84-10.42-21-75.89-54.68-58.5-20 10.32-16.4 48.35 14.83 77.08-6.13-5.93-13.21-12.65-21.57-14.31-4.52-.9-10.05 1.18-13.44 4.31-3 2.78-3.9 7.17-4 11.27a44.33 44.33 0 0 0 19.76 37.94c-6.91-3.85-12.9-8.69-20.78-9.36-2.56-.23-6.91 1.24-8.09 3.52-1.29 2.49-1.2 11.8 14 18.75-62-11.76-65.61 14.66-43.33 14.66H280" transform="translate(-62.26 -46.66)"/><path class="cls-7" d="M503.56 368.79c1.15-6.5 19.32-47.06 40.35-36.2 12.49 6.45 10.24 30.21-9.27 48.15 3.83-3.7 8.25-7.9 13.48-8.94a10.43 10.43 0 0 1 8.39 2.69c1.88 1.74 2.43 4.48 2.52 7a27.73 27.73 0 0 1-12.34 23.71c4.31-2.41 8-5.43 13-5.86 1.6-.13 4.31.78 5.05 2.21s.75 7.36-8.75 11.71c38.72-7.35 41 9.16 27.06 9.16H468.88" transform="translate(-62.26 -46.66)"/><path class="cls-8" d="M431 336.59c1.84-10.42 21-75.89 54.69-58.5 20 10.32 16.4 48.35-14.84 77.08 6.13-5.93 13.21-12.65 21.58-14.31 4.52-.9 10.05 1.18 13.43 4.31 3 2.78 3.9 7.17 4 11.27a44.33 44.33 0 0 1-19.76 37.94c6.91-3.85 12.89-8.69 20.78-9.36 2.56-.23 6.9 1.24 8.09 3.52 1.29 2.49 1.2 11.8-14 18.75C567 395.53 570.6 422 548.32 422H401.07" transform="translate(-62.26 -46.66)"/><path class="cls-9" d="m220.26 74.49 9.13 4.87-4.56-11.87"/><circle class="cls-9" cx="211.22" cy="59.31" r="19.3"/><path class="cls-10" d="M272.35 95.05a7 7 0 0 1 7.12 9.82l-.67 1.67-2.36 6.11-2.5.22-2.51.22-3.36-5.6-1-1.52a7 7 0 0 1-1.16-3.23 7.09 7.09 0 0 1 6.43-7.69m-.08-1.05a8.18 8.18 0 0 0-7.42 8.87 8 8 0 0 0 1.33 3.74l4.69 7.67L274 114l3.18-.28 3.26-8.37A8.11 8.11 0 0 0 272.26 94Zm2.31 26a3.2 3.2 0 0 1-3.47-2.9l-.2-2.33 6.36-.56.21 2.33a3.19 3.19 0 0 1-2.9 3.46Z" transform="translate(-62.26 -46.66)"/><path class="cls-10" d="M269.61 104a.54.54 0 0 1-.05-1.08l6.92-.62a.55.55 0 0 1 .59.5.54.54 0 0 1-.49.58l-6.92.62Z" transform="translate(-62.26 -46.66)"/><path class="cls-10" d="M274 113.93a.54.54 0 0 1-.54-.5l-.91-10.28a.54.54 0 0 1 1.08-.1l.91 10.29a.54.54 0 0 1-.49.59Z" transform="translate(-62.26 -46.66)"/><path class="cls-9" d="m320.12 92.75-8.33 4.45 4.16-10.83"/><circle class="cls-9" cx="328.36" cy="78.91" r="17.61"/><path class="cls-10" d="M400.39 127.37a8.59 8.59 0 0 0 .3-2.28 8.75 8.75 0 0 0-.26-2.13l-1.61.18a8.16 8.16 0 0 0-.95-2.32l1.29-1a9 9 0 0 0-1.41-1.83c-.21-.21-.44-.42-.67-.61l-.19-.15a9.28 9.28 0 0 0-.83-.56l-1 1.28-.25-.14-.28-.16a8.41 8.41 0 0 0-1.77-.68l.18-1.64a9 9 0 0 0-2.28-.29 8.81 8.81 0 0 0-2.13.25l.18 1.63a8.12 8.12 0 0 0-2.32.93l-1-1.28a9.3 9.3 0 0 0-1.82 1.4 8.77 8.77 0 0 0-1.32 1.69l1.27 1a8.25 8.25 0 0 0-1 2.3l-1.62-.18a8.66 8.66 0 0 0-.3 2.29 8.87 8.87 0 0 0 .26 2.13l1.61-.18a8.44 8.44 0 0 0 .94 2.32l-1.28 1a8.77 8.77 0 0 0 1.41 1.83 8.48 8.48 0 0 0 1.69 1.32l1-1.27a8.51 8.51 0 0 0 2.31 1l-.18 1.61a9 9 0 0 0 2.28.3 8.75 8.75 0 0 0 2.13-.26l-.18-1.6a8.69 8.69 0 0 0 2.34-.94l1 1.26a8.35 8.35 0 0 0 1.82-1.4 9.24 9.24 0 0 0 1.33-1.69l-1.27-1a8.49 8.49 0 0 0 1-2.31Zm-4.59-2.12a5.17 5.17 0 1 1-5.34-5.34 5.19 5.19 0 0 1 5.34 5.34Z" transform="translate(-62.26 -46.66)"/><path class="cls-11" d="M219.25 318.18h161.79v48.74H219.25z"/><path transform="rotate(180 199.755 365.885)" style="fill:#ededed" d="M180.25 364.85h101.27v48.74H180.25z"/><path class="cls-13" d="M269.1 356.37v12.25h159.53a10.9 10.9 0 0 1 10.9 10.9v19.39a10.9 10.9 0 0 1-10.9 10.9H269.1v12.25h165.33a18.87 18.87 0 0 0 18.87-18.87v-27.95a18.87 18.87 0 0 0-18.87-18.87Z" transform="translate(-62.26 -46.66)"/><path d="M108.69 309.71h98.14v12.25h-98.14zm0 53.44h98.14v12.25h-98.14z" style="fill:#4061b0"/><path d="M117.99 331.84h101.26m-101.26 13.48h101.26M117.99 356.5h101.26" style="stroke-miterlimit:10;stroke:#ccc;stroke-width:4.35px;fill:none"/><path d="m347.06 331.84-127.81 2.18v-4.35l127.81 2.17zm13.2 13.48-141.01 2.18v-4.36l141.01 2.18zm-13.2 11.18-127.81 2.18v-4.36l127.81 2.18z" style="fill:#e2e2e2"/><path d="M147.48 227.13h129.31v82.58H147.48a14.19 14.19 0 0 1-14.19-14.19v-54.2a14.19 14.19 0 0 1 14.19-14.19Z" style="fill:#357272"/><path class="cls-11" transform="rotate(180 330.115 291.75)" d="M292.88 282.27h136.73v65.63H292.88z"/><path d="M442 273.79V286H307.57a10.9 10.9 0 0 0-10.9 10.9v36.28a10.9 10.9 0 0 0 10.9 10.9H442v12.25H301.76a18.86 18.86 0 0 1-18.86-18.83v-44.84a18.86 18.86 0 0 1 18.86-18.87Z" transform="translate(-62.26 -46.66)" style="fill:#599694"/><path d="m264.61 249.26 102.74-2.17v4.35l-102.74-2.18zm-21.28 8.85 124.02-2.17v4.35l-124.02-2.18zm8.08 21.52 115.94-2.18v4.35l-115.94-2.17zm13.2 11.18 102.74-2.18v4.35l-102.74-2.17z" style="fill:#e5e5e5"/><path class="cls-11" d="M180.3 211.43h183.57v16.93H180.3z"/><path style="fill:#6d8eaf" d="M180.3 154.52h183.57v16.92H180.3z"/><path style="fill:#4e7a72" d="M170.7 137.6h199.19v16.93H170.7z"/><path style="fill:#86911d;opacity:.99" d="M184.86 171.45h179.02v16.93H184.86z"/><path style="fill:#6f6865" d="M193.4 188.38h168.68v23.05H193.4z"/><path d="M212.53 199.9h20.18m11.06 0h98.79" style="stroke:#a6a3a3;stroke-width:7.81px;stroke-miterlimit:10;fill:none"/><path style="stroke:#42a7c6;opacity:.8;stroke-width:7.81px;stroke-miterlimit:10;fill:none" d="M199.26 179.91h143.3"/><path d="M270.91 162.99h85.8M180.3 146.06h176.41" style="stroke:#f0efe1;stroke-width:7.81px;stroke-miterlimit:10;fill:none"/><path d="M209.44 339.72a15.47 15.47 0 0 1-11.6-13.72v-.95a1.46 1.46 0 0 1 0-.29 1.27 1.27 0 0 1 0-.28v-.95a15.47 15.47 0 0 1 11.6-13.76A56.83 56.83 0 0 0 251.06 255a56.16 56.16 0 0 0-.93-10.28c-.1-.57-.21-1.14-.34-1.69s-.17-.82-.28-1.23a.17.17 0 0 0 0-.07c-.05-.22-.1-.43-.16-.64-.1-.41-.2-.8-.32-1.21-.16-.61-.34-1.22-.53-1.83h-1.94c.07.2.13.4.19.6v.1c.11.34.21.69.31 1s.13.45.18.67.2.71.29 1.07.11.45.16.67c.09.37.17.73.25 1.09 0 .13.06.25.08.38a.89.89 0 0 0 0 .14l.24 1.25A55 55 0 0 1 209 308a17.27 17.27 0 0 0-13 15.39v1.05a2.53 2.53 0 0 0 0 .28v1.34a17.27 17.27 0 0 0 13 15.44 55 55 0 0 1 39.36 62.91 53.45 53.45 0 0 1-4.36 13.35h-99.51a54.84 54.84 0 0 1-5.17-23.3 55.11 55.11 0 0 1 40.27-53 17.29 17.29 0 0 0 12.95-15.44v-1.34a2.53 2.53 0 0 0 0-.28v-1.05A17.29 17.29 0 0 0 179.59 308a55 55 0 0 1-39.37-63c.11-.57.22-1.14.35-1.72.13-.55.25-1.11.39-1.66a.3.3 0 0 0 0-.1c.11-.42.22-.85.35-1.27a.29.29 0 0 1 0-.1 3 3 0 0 1 .14-.49c.08-.31.17-.61.27-.91a.29.29 0 0 1 0-.1c0-.2.12-.4.19-.6h-1.94q-.28.92-.54 1.83c-.11.41-.22.8-.31 1.21-.06.21-.11.42-.16.64a.19.19 0 0 0 0 .07q-.15.61-.27 1.23c-.13.55-.24 1.12-.34 1.69a56.16 56.16 0 0 0-.94 10.28 56.82 56.82 0 0 0 41.63 54.74 15.46 15.46 0 0 1 11.59 13.76v.95a2.53 2.53 0 0 1 0 .28v1.24a15.46 15.46 0 0 1-11.59 13.76 56.82 56.82 0 0 0-41.63 54.74 57 57 0 0 0 5.86 25.15h101.94a56.8 56.8 0 0 0 5.85-25.15 56.83 56.83 0 0 0-41.62-54.75Z" transform="translate(-62.26 -46.66)" style="opacity:.2;fill:#649de1"/><path class="cls-11" d="M249.21 394.46a54.64 54.64 0 0 1-.9 10 53.45 53.45 0 0 1-4.31 13.3h-99.51a54.84 54.84 0 0 1-5.17-23.3 55.11 55.11 0 0 1 40.27-53 17.29 17.29 0 0 0 12.95-15.44v-1.34a2.53 2.53 0 0 0 0-.28v-1.05A17.29 17.29 0 0 0 179.59 308a55 55 0 0 1-39.37-63c.11-.57.22-1.14.35-1.72.12-.55.25-1.11.39-1.66a.3.3 0 0 0 0-.1c.12-.46.24-.91.38-1.37s.26-.94.41-1.4c.07-.23.14-.47.22-.7h104.58c.08.23.15.47.22.7s.21.69.31 1 .13.45.18.67.2.71.29 1.07.11.45.16.67c.09.37.17.73.25 1.09 0 .17.07.35.11.52l.24 1.25A55 55 0 0 1 209 308a17.27 17.27 0 0 0-13 15.39v1.05a2.53 2.53 0 0 0 0 .28v1.34a17.27 17.27 0 0 0 13 15.44 55.1 55.1 0 0 1 40.21 52.96Z" transform="translate(-62.26 -46.66)"/><path d="M249.21 394.46a54.64 54.64 0 0 1-.9 10 53.45 53.45 0 0 1-4.31 13.3h-99.51a54.84 54.84 0 0 1-5.17-23.3 55.11 55.11 0 0 1 40.27-53 17.29 17.29 0 0 0 12.95-15.44v-1.34a2.53 2.53 0 0 0 0-.28v-1.05A17.29 17.29 0 0 0 179.59 308a55 55 0 0 1-39.37-63c.11-.57.22-1.14.35-1.72.12-.55.25-1.11.39-1.66a.3.3 0 0 0 0-.1c.12-.46.24-.91.38-1.37s.26-.94.41-1.4c.07-.23.14-.47.22-.7h104.58c.08.23.15.47.22.7s.21.69.31 1 .13.45.18.67.2.71.29 1.07.11.45.16.67c.09.37.17.73.25 1.09 0 .17.07.35.11.52l.24 1.25A55 55 0 0 1 209 308a17.27 17.27 0 0 0-13 15.39v1.05a2.53 2.53 0 0 0 0 .28v1.34a17.27 17.27 0 0 0 13 15.44 55.1 55.1 0 0 1 40.21 52.96Z" transform="translate(-62.26 -46.66)" style="fill:#dbeaf8;opacity:.5"/><path class="cls-29" d="M149 287.35s8.67 14.2 29.45 20.73c5.32 1.57 7.11 2.72 10.17 5.54s4.11 7.79 4 11.72c0 3 1.71 47.54 1.71 53.08 0 5.23.68 1.36.52.23C195.33 347.16 196 324 196 324s1.89-9.9 4.8-11.27 13.49-6.27 17.81-7.48 14.78-10.74 14.78-10.74 13.28-18.94 14.09-21.36-6-2.66-6-2.66Z" transform="translate(-62.26 -46.66)"/><ellipse cx="197.42" cy="277.91" rx="51.01" ry="10.54" transform="rotate(-8.91 -133.037 654.266)" style="fill:#4d87a0"/><g class="cls-31"><path class="cls-11" d="M179.32 301a5.41 5.41 0 0 1-1.8-.31 53 53 0 0 1-10.94-5.16 5.54 5.54 0 0 1 5.9-9.39 42 42 0 0 0 8.64 4.07 5.55 5.55 0 0 1-1.8 10.79Zm-21.67-16.38a5.54 5.54 0 0 1-4.69-2.56c-9.66-15.19-7.17-32.25-7.06-33a5.54 5.54 0 0 1 11 1.67c0 .23-1.89 13.8 5.46 25.35a5.55 5.55 0 0 1-1.7 7.65 5.61 5.61 0 0 1-3.01.89Z" transform="translate(-62.26 -46.66)"/></g><g class="cls-31"><path class="cls-11" d="M179.32 347.86a5.4 5.4 0 0 0-1.8.3 52.49 52.49 0 0 0-10.94 5.17 5.54 5.54 0 0 0 5.9 9.38 42 42 0 0 1 8.64-4.07 5.54 5.54 0 0 0-1.8-10.78Zm-21.67 16.35a5.55 5.55 0 0 0-4.69 2.57c-9.66 15.19-7.17 32.24-7.06 33a5.54 5.54 0 0 0 11-1.67c0-.22-1.89-13.79 5.46-25.34a5.55 5.55 0 0 0-4.67-8.52Z" transform="translate(-62.26 -46.66)"/></g><path d="M209.44 339.72a15.47 15.47 0 0 1-11.6-13.72v-.95a1.46 1.46 0 0 1 0-.29 1.27 1.27 0 0 1 0-.28v-.95a15.47 15.47 0 0 1 11.6-13.76A56.83 56.83 0 0 0 251.06 255a56.16 56.16 0 0 0-.93-10.28c-.1-.57-.21-1.14-.34-1.69s-.17-.82-.28-1.23a.17.17 0 0 0 0-.07c-.05-.22-.1-.43-.16-.64-.1-.41-.2-.8-.32-1.21-.16-.61-.34-1.22-.53-1.83h-1.94c.07.19.13.4.19.6v.1c.11.34.21.69.31 1s.13.45.18.67.2.71.29 1.07.11.45.16.67c.09.37.17.73.25 1.09 0 .13 0 .25.08.38a.89.89 0 0 0 0 .14l.24 1.25A55 55 0 0 1 209 308a17.27 17.27 0 0 0-13 15.39v1.05a2.53 2.53 0 0 0 0 .28v1.34a17.27 17.27 0 0 0 13 15.44 55 55 0 0 1 39.36 62.91 53.45 53.45 0 0 1-4.36 13.35h-99.51a54.84 54.84 0 0 1-5.17-23.3 55.11 55.11 0 0 1 40.27-53 17.29 17.29 0 0 0 12.95-15.44v-1.34a2.53 2.53 0 0 0 0-.28v-1.05A17.29 17.29 0 0 0 179.59 308a55 55 0 0 1-39.37-63c.11-.57.22-1.15.35-1.72.13-.55.25-1.11.39-1.66a.3.3 0 0 0 0-.1c.11-.42.22-.85.35-1.27a.29.29 0 0 1 0-.1 4.5 4.5 0 0 1 .14-.49c.08-.31.17-.61.27-.91a.29.29 0 0 1 0-.1c.06-.2.12-.41.19-.6h-1.94q-.28.92-.54 1.83c-.11.41-.22.8-.31 1.21-.06.21-.11.42-.16.64a.19.19 0 0 0 0 .07q-.15.61-.27 1.23c-.13.55-.24 1.12-.34 1.69a56.16 56.16 0 0 0-.94 10.28 56.82 56.82 0 0 0 41.63 54.74 15.46 15.46 0 0 1 11.59 13.76v.95a2.53 2.53 0 0 1 0 .28v1.24a15.46 15.46 0 0 1-11.59 13.76 56.82 56.82 0 0 0-41.63 54.74 57 57 0 0 0 5.86 25.15h101.94a56.8 56.8 0 0 0 5.85-25.15 56.83 56.83 0 0 0-41.62-54.75Z" transform="translate(-62.26 -46.66)" style="fill:#c0dbf4"/><path class="cls-33" d="M265.06 416.59a5.37 5.37 0 0 1-5.37 5.37H128.85a5.36 5.36 0 0 1-5.37-5.37 5.36 5.36 0 0 1 5.37-5.37h130.84a5.37 5.37 0 0 1 5.37 5.37Z" transform="translate(-62.26 -46.66)"/><path d="M237.75 272.17c.09.41-1 1-2.44 1.29s-2.67.22-2.76-.19 1-1 2.45-1.28 2.67-.22 2.75.18Zm-3.3 4.67c.08.4-.59.89-1.51 1.08s-1.72 0-1.81-.38.59-.89 1.5-1.09 1.73-.02 1.82.39Zm-4.2-1.23c.09.4-.59.89-1.5 1.08s-1.73 0-1.82-.38.59-.89 1.51-1.09 1.73-.02 1.81.39Zm-28.97 3.72c.05.22-.32.49-.81.59s-.93 0-1-.21.32-.48.81-.58.96-.02 1 .2Zm22.39-6.8c0 .22-.32.48-.82.59s-.93 0-1-.21.31-.48.81-.58.96-.02 1.01.2Zm-8.12 7.82c0 .22-.32.48-.81.58s-.93 0-1-.2.32-.49.81-.59.96-.01 1 .21Zm-10.82 5.17c0 .22-.32.48-.82.59s-.93 0-1-.21.32-.48.82-.58.95-.02 1 .2Z" transform="translate(-62.26 -46.66)" style="fill:#71c2d8"/><path class="cls-29" d="m194.9 372.79-.38-.15-.38.15s-3.27 25.57-38.38 38.43h77.51c-35.1-12.86-38.37-38.43-38.37-38.43Z" transform="translate(-62.26 -46.66)"/><path d="M248.67 238.63c0 2.85-24.36 5.16-54.4 5.16s-54.4-2.31-54.4-5.16 24.36-5.17 54.4-5.17 54.4 2.31 54.4 5.17Z" transform="translate(-62.26 -46.66)" style="fill:#c1d9ed"/><path class="cls-33" d="M259.69 230.67H128.85a5.37 5.37 0 1 0 0 10.74h130.84a5.37 5.37 0 1 0 0-10.74Z" transform="translate(-62.26 -46.66)"/><path class="cls-33" d="M501.47 385.09h78.32a5.12 5.12 0 0 1 5.12 5.12 5.12 5.12 0 0 1-5.12 5.12h-78.32v-10.24Z" transform="rotate(45.19 568.134 292.105)"/><path class="cls-13" d="M502.43 385.38h78.85a1.82 1.82 0 0 1 1.82 1.82 1.82 1.82 0 0 1-1.82 1.82h-78.85v-3.64Z" transform="rotate(45.19 567.713 289.094)"/><path class="cls-29" transform="rotate(45.19 520.868 245.625)" d="M471.35 315.14h49.13v57.18h-49.13z"/><path class="cls-36" transform="rotate(45.19 512.262 237.07)" d="M482.18 306.59h10.27v57.18h-10.27z"/><rect class="cls-33" x="446.26" y="360.21" width="56.54" height="9.53" rx="4.56" transform="rotate(45.19 499.484 266.858)"/><path class="cls-37" d="m425.31 342.25-36.89-37.14 3.64-1.34 34.62 34.85-1.37 3.63z"/><rect class="cls-33" x="437.17" y="369.5" width="59.9" height="5.66" rx="2.56" transform="rotate(45.19 492.077 274.225)"/><rect class="cls-33" x="488.98" y="317.77" width="56.54" height="9.53" rx="4.56" transform="rotate(45.19 542.21 224.424)"/><path class="cls-37" d="m478.84 289.08-36.89-37.14-1.36 3.62 34.62 34.86 3.63-1.34z"/><rect class="cls-33" x="494.72" y="312.35" width="59.9" height="5.66" rx="2.56" transform="rotate(45.19 549.616 217.056)"/><path class="cls-29" d="M373.79 348h65.69a17.58 17.58 0 0 1 17.58 17.58H356.2A17.58 17.58 0 0 1 373.79 348Z"/><rect class="cls-36" x="354.69" y="364.39" width="103.89" height="3.49" rx="1.74"/><rect class="cls-33" x="350.02" y="365.6" width="113.23" height="9.8" rx="4.9"/><path class="cls-36" d="M401.28 350.48h42a2.27 2.27 0 0 1 2.27 2.27.76.76 0 0 1-.76.76h-43.51a1.51 1.51 0 0 1-1.51-1.51 1.51 1.51 0 0 1 1.51-1.51Z"/><path class="cls-38" d="M103.89 345.68s35.72 27.53 69.39 0" transform="translate(-62.26 -46.66)"/><path class="cls-38" d="M173.05 345.68s35.72 27.53 69.39 0" transform="translate(-62.26 -46.66)"/><path class="cls-38" d="M241.91 345.68s35.72 27.53 69.39 0" transform="translate(-62.26 -46.66)"/><path class="cls-39" d="M40.6 299.25h2.28v3.67H40.6z"/><path class="cls-40" d="M40.6 299.25h2.28v3.67H40.6z"/><path class="cls-13" d="M105.22 346.65a1.41 1.41 0 0 0 .15-.61 1.37 1.37 0 1 0-2.74 0 1.41 1.41 0 0 0 .15.61Z" transform="translate(-62.26 -46.66)"/><path class="cls-41" d="M40.47 314.17h2.52v72.42h-2.52z"/><path d="M40.47 308.97h2.52v8.06h-2.52z" class="cls-42"/><path class="cls-13" d="M107.52 351.55A3.52 3.52 0 1 1 104 348a3.53 3.53 0 0 1 3.52 3.55Z" transform="translate(-62.26 -46.66)"/><path class="cls-43" d="M100.77 351.92v.19a3.58 3.58 0 0 0 1.46.32 3.53 3.53 0 0 0 3.52-3.52v-.19a3.51 3.51 0 0 0-5 3.2Z" transform="translate(-62.26 -46.66)"/><path class="cls-13" d="M43.4 314.92h-3.32l-.73-7.45h4.77l-.72 7.45z"/><path class="cls-33" d="M102.61 428.42h2.77a4.61 4.61 0 0 0 2.5 2.56l1 .33h-9.77l1-.33a4.57 4.57 0 0 0 2.5-2.56Z" transform="translate(-62.26 -46.66)"/><path class="cls-41" d="M36.14 384.58h11.19a.83.83 0 0 1 .83.83v.69H35.31v-.69a.83.83 0 0 1 .83-.83Z"/><path class="cls-33" d="M111.24 433.45H96.76v-.9a.48.48 0 0 1 .48-.48h13.52a.49.49 0 0 1 .48.48Z" transform="translate(-62.26 -46.66)"/><path class="cls-39" d="M109.81 299.25h2.28v3.67h-2.28z"/><path class="cls-40" d="M109.81 299.25h2.28v3.67h-2.28z"/><path class="cls-13" d="M174.43 346.65a1.41 1.41 0 0 0 .15-.61 1.37 1.37 0 1 0-2.74 0 1.28 1.28 0 0 0 .15.61Z" transform="translate(-62.26 -46.66)"/><path class="cls-41" d="M109.68 314.17h2.52v72.42h-2.52z"/><path d="M109.68 308.97h2.52v8.06h-2.52z" class="cls-42"/><path class="cls-13" d="M176.73 351.55a3.53 3.53 0 1 1-3.52-3.52 3.53 3.53 0 0 1 3.52 3.52Z" transform="translate(-62.26 -46.66)"/><path class="cls-43" d="M170 351.92v.19a3.51 3.51 0 0 0 5-3.2v-.19a3.58 3.58 0 0 0-1.46-.32 3.52 3.52 0 0 0-3.54 3.52Z" transform="translate(-62.26 -46.66)"/><path class="cls-13" d="M112.6 314.92h-3.32l-.72-7.45h4.77l-.73 7.45z"/><path class="cls-33" d="M171.82 428.42h2.77a4.61 4.61 0 0 0 2.5 2.56l1 .33h-9.78l1-.33a4.61 4.61 0 0 0 2.51-2.56Z" transform="translate(-62.26 -46.66)"/><path class="cls-41" d="M105.35 384.58h11.19a.83.83 0 0 1 .83.83v.69h-12.85v-.69a.83.83 0 0 1 .83-.83Z"/><path class="cls-33" d="M180.44 433.45H166v-.9a.48.48 0 0 1 .47-.48H180a.48.48 0 0 1 .47.48Z" transform="translate(-62.26 -46.66)"/><path class="cls-39" d="M179.01 299.25h2.28v3.67h-2.28z"/><path class="cls-40" d="M179.01 299.25h2.28v3.67h-2.28z"/><path class="cls-13" d="M243.63 346.65a1.28 1.28 0 0 0 .15-.61 1.37 1.37 0 1 0-2.74 0 1.41 1.41 0 0 0 .15.61Z" transform="translate(-62.26 -46.66)"/><path class="cls-41" d="M178.89 314.17h2.52v72.42h-2.52z"/><path d="M178.89 308.97h2.52v8.06h-2.52z" class="cls-42"/><path class="cls-13" d="M245.94 351.55a3.53 3.53 0 1 1-3.53-3.52 3.53 3.53 0 0 1 3.53 3.52Z" transform="translate(-62.26 -46.66)"/><path class="cls-43" d="M239.19 351.92a1.37 1.37 0 0 0 0 .19 3.51 3.51 0 0 0 5-3.2v-.19a3.58 3.58 0 0 0-1.46-.32 3.52 3.52 0 0 0-3.54 3.52Z" transform="translate(-62.26 -46.66)"/><path class="cls-13" d="M181.81 314.92h-3.32l-.73-7.45h4.78l-.73 7.45z"/><path class="cls-33" d="M241 428.42h2.77a4.61 4.61 0 0 0 2.5 2.56l1 .33h-9.77l1-.33a4.61 4.61 0 0 0 2.5-2.56Z" transform="translate(-62.26 -46.66)"/><path class="cls-41" d="M174.56 384.58h11.19a.83.83 0 0 1 .83.83v.69h-12.85v-.69a.83.83 0 0 1 .83-.83Z"/><path class="cls-33" d="M249.65 433.45h-14.47v-.9a.48.48 0 0 1 .47-.48h13.53a.48.48 0 0 1 .47.48Z" transform="translate(-62.26 -46.66)"/><path class="cls-39" d="M248.22 299.25h2.28v3.67h-2.28z"/><path class="cls-40" d="M248.22 299.25h2.28v3.67h-2.28z"/><path class="cls-13" d="M312.84 346.65a1.28 1.28 0 0 0 .16-.65 1.37 1.37 0 1 0-2.74 0 1.41 1.41 0 0 0 .15.61Z" transform="translate(-62.26 -46.66)"/><path class="cls-41" d="M248.1 314.17h2.52v72.42h-2.52z"/><path d="M248.1 308.97h2.52v8.06h-2.52z" class="cls-42"/><path class="cls-13" d="M315.14 351.55a3.52 3.52 0 1 1-3.52-3.52 3.52 3.52 0 0 1 3.52 3.52Z" transform="translate(-62.26 -46.66)"/><path class="cls-43" d="M308.4 351.92a1.37 1.37 0 0 0 0 .19 3.51 3.51 0 0 0 5-3.2 1.11 1.11 0 0 0 0-.19 3.51 3.51 0 0 0-5 3.2Z" transform="translate(-62.26 -46.66)"/><path class="cls-13" d="M251.02 314.92h-3.32l-.73-7.45h4.78l-.73 7.45z"/><path class="cls-33" d="M310.24 428.42H313a4.57 4.57 0 0 0 2.5 2.56l1 .33h-9.78l1-.33a4.61 4.61 0 0 0 2.52-2.56Z" transform="translate(-62.26 -46.66)"/><path class="cls-41" d="M243.76 384.58H255a.83.83 0 0 1 .83.83v.69h-12.9v-.69a.83.83 0 0 1 .83-.83Z"/><path class="cls-33" d="M318.86 433.45h-14.47v-.9a.48.48 0 0 1 .47-.48h13.52a.48.48 0 0 1 .48.48Z" transform="translate(-62.26 -46.66)"/><path class="cls-44" d="M312.33 134a7.44 7.44 0 0 0 4.76 2.43c2.2.18 5-1.12 5.61-3.4-1.39-.09-1.29-2-1.34-3a24.66 24.66 0 0 1 .05-2.92c0-.66.08-1.09.08-1.09l-8.26-5.26a40.84 40.84 0 0 1 .57 7.56c0 1.73 0 4.52-2.47 4.42a8.73 8.73 0 0 0 1 1.26Z" transform="translate(-62.26 -46.66)"/><path class="cls-45" d="M316.41 125.27a18.41 18.41 0 0 0 4.95 4.77 24.66 24.66 0 0 1 .05-2.92Z" transform="translate(-62.26 -46.66)"/><path class="cls-44" d="M327.94 114.72s1.15 12-3.24 14.7c-2 1.2-8.44-4.28-8.44-4.28s-4.23-3.66-3.51-7.89c1.37-8.01 13.95-10.49 15.19-2.53Z" transform="translate(-62.26 -46.66)"/><path class="cls-46" d="M330.06 110.15c-.12-.08-1.14.69-4.55-2a8 8 0 0 0-6.67-.94 4.67 4.67 0 0 0-3.25 2.63 3.72 3.72 0 0 0-3.52 1.56c-3.45 4.39 1.07 14.42 1.66 14.57s-.74-6.57 2.07-6.49c1.68.05 2.2 2.94 2.47 2.67s0-3.61.25-4.35a1.17 1.17 0 0 1 1.07-.48c1.3.17 1-2 2.11-2.35a10.6 10.6 0 0 1 4.16.22c5.5 1.46 6.14-3.72 4.2-5.04Z" transform="translate(-62.26 -46.66)"/><path class="cls-45" d="M315.57 120.55c.23-.11.62-.14.9.46s0 .56 0 .93.29.35.39.67 0 1.08-.68.94-.81-1.15-.89-1.45-.21-1.33.28-1.55Z" transform="translate(-62.26 -46.66)"/><path class="cls-47" d="M306.18 172.12s13.32 1.51 16.39 1.58 2.92-1.54 2.92-1.54c.15-3.38.72-11.33 1.36-14 .59-2.52.85-3.45 1.37-5.84 1.15-5.31 1.1-6.33 2.31-12.89l-8-6.4a4.19 4.19 0 0 1-4.16 2.49c-4.46.06-5.84-3.06-5.84-3.06l-10.86 7.2-1 17.53 4.07 13.42" transform="translate(-62.26 -46.66)"/><path class="cls-48" d="M343 217a28.07 28.07 0 0 1-.77 3.43c-.34.88-3.21.07-3.4-.5s.9-4.72.9-4.72" transform="translate(-62.26 -46.66)"/><path class="cls-49" d="M337.8 220.67c-.25.94-.57 2.75-.57 2.75l2.87 1.25.48-.44a5.36 5.36 0 0 0 1.59 1.27 12.07 12.07 0 0 0 2.78.77c2.5.27 4.35-.2 4.5-.55.62-1.45-2.71-1.84-3.37-2a4.42 4.42 0 0 1-3.15-3.16c-.14-.76 0-.89-.38-.87a1 1 0 0 0-.72.34 1.81 1.81 0 0 1-2 .47 2.2 2.2 0 0 1-1-.84 1.22 1.22 0 0 0-1.03 1.01Z" transform="translate(-62.26 -46.66)"/><path class="cls-46" d="M330.28 183.54c4.49.88 9.92 1.54 14.45.94-.63 1.82-2 3.56-2.58 6.12-1.95 8.45-2.63 19.8-3.13 26.83 0 0 .94 1.8 4 .43 4.49-11.1 12.34-33.6 12.27-38.48-.09-6.22-15.6-7.72-27-9.25" transform="translate(-62.26 -46.66)"/><g style="mix-blend-mode:multiply;opacity:.5"><path d="M310.47 171.1c-3.58 2.61 19.81 12.44 19.81 12.44a38.57 38.57 0 0 0 7.66.73 5.47 5.47 0 0 0 .57-1.45c.14-.68.07-1.38.19-2.06a4.8 4.8 0 0 1 2.33-3.15 10.4 10.4 0 0 1 3.82-1.24 51.25 51.25 0 0 1 8.69-.15c-7-5.19-20.7-4-27.4-4.44-1.28 2.11-15.14-1.05-15.67-.68Z" transform="translate(-62.26 -46.66)" style="fill:#48546c"/></g><path d="M341 219.37c-.1.54-.24 1.22-.38 1.77h.13c.43 0 .24.11.38.87a4.44 4.44 0 0 0 3.15 3.16c.66.17 4 .56 3.37 2-.15.35-2 .82-4.5.55a12.07 12.07 0 0 1-2.78-.77 5.36 5.36 0 0 1-1.59-1.27l-.48.44-2.87-1.25s.32-1.81.57-2.75a1.25 1.25 0 0 1 1-1 14.44 14.44 0 0 1 .35-2.06 1.52 1.52 0 0 1-.11-.16c.5-7 1.18-18.37 3.13-26.83a15.94 15.94 0 0 1 1.49-3.75 18.87 18.87 0 0 0 1.09-2.36 35.18 35.18 0 0 1-6.68.12c0 .71-.05 1.46-.08 2.24-.45 10-2.11 24.92-1.87 36.76a2.5 2.5 0 0 1-.55.32c0 .54 0 1.19-.07 1.74h.13c.41-.1.25.07.53.79a4.39 4.39 0 0 0 3.65 2.56c.68.06 4-.13 3.66 1.4-.09.37-1.82 1.15-4.34 1.32a12 12 0 0 1-2.87-.27 5.31 5.31 0 0 1-1.79-1l-.39.52-3-.74s0-1.83.08-2.81a1.24 1.24 0 0 1 .78-1.17 16 16 0 0 1 0-2.23c-.28-.09-.56-.19-.86-.32-.75-8.14-5.26-26.52-3.05-36.85a15.79 15.79 0 0 1 .64-2.26c-8.44 1.12-15.71 2.17-23.38-.37a3.87 3.87 0 0 1-1.82-1.19h51.28a46.93 46.93 0 0 1-1 3.82c-2.49 9-7.49 23-10.75 31Z" transform="translate(-62.26 -46.66)" style="fill:#595959" class="cls-52"/><path class="cls-48" d="M335.55 222.92a26.76 26.76 0 0 1-.16 3.51c-.18.92-3.15.63-3.43.1s.07-4.81.07-4.81" transform="translate(-62.26 -46.66)"/><path class="cls-49" d="M331.1 227.42c-.08 1-.08 2.81-.08 2.81l3 .73.39-.52a5.31 5.31 0 0 0 1.79 1 12.59 12.59 0 0 0 2.87.28c2.51-.17 4.25-1 4.34-1.32.36-1.54-3-1.35-3.67-1.4a4.41 4.41 0 0 1-3.64-2.57c-.28-.72-.12-.89-.53-.79a1 1 0 0 0-.65.46 1.82 1.82 0 0 1-1.93.82 2.16 2.16 0 0 1-1.15-.66 1.25 1.25 0 0 0-.74 1.16Z" transform="translate(-62.26 -46.66)"/><path class="cls-46" d="M302.67 170.58a18.19 18.19 0 0 0-1.31 5.38 10 10 0 0 0 .63 4.7 6.48 6.48 0 0 0 3.79 3.73 27.91 27.91 0 0 0 6.84 1.28 67.5 67.5 0 0 0 13.91-.81l2.08-.28c-3.58 9.66 1.6 30.34 2.41 39.11 3.24 1.44 5.08-.09 5.08-.09-.37-17.85 3.61-42.78 1.2-47-1.46-2.59-18.93-6-19.28-6" transform="translate(-62.26 -46.66)"/><path class="cls-47" d="M339.41 166.06c-4.65-6.71-7.14-12-11.19-19.08l-5.65-14 2.28.14a17.14 17.14 0 0 1 4.7.89 9.82 9.82 0 0 1 5.45 4.39c.94 1.88 1.51 3.93 2.3 5.87.89 2.17 1.83 4.32 2.77 6.46 1.88 4.26 3.81 8.5 5.39 12.87" transform="translate(-62.26 -46.66)"/><path style="fill:#101010;opacity:.2;mix-blend-mode:multiply" d="m266.74 101.7.76-4.53 5.57 12.2-1.85.45-4.48-8.12z"/><path d="M301.67 139.4c-.76 10.93-.72 22.6 1.74 33.34.06.3.58.24.54-.08-.57-5.54-1.43-11-1.73-16.58a157.3 157.3 0 0 1 0-16.68c0-.37-.55-.36-.57 0Z" transform="translate(-62.26 -46.66)"/><path class="cls-55" d="M246.96 125.16H290v1.55h-43.04z"/><path class="cls-55" d="M359.94 173.37h-34.45l6.17-20.14a2.66 2.66 0 0 1 2.54-1.87h30.17a1.72 1.72 0 0 1 1.64 2.22Z" transform="translate(-62.26 -46.66)"/><path d="M360.37 173.37h-33.93l6.18-20.14a2.64 2.64 0 0 1 2.53-1.87h30.17a1.72 1.72 0 0 1 1.64 2.22L361 172.87a.7.7 0 0 1-.63.5Z" transform="translate(-62.26 -46.66)" style="fill:#e1e6f7"/><path d="M306.71 143c1.77 8 2.51 17.28 3 23 6.66.49 8.53 3.05 14.62 5.76 0 0 4.82-.8 5.32 1 .29 1-5.63 1.88-5.63 1.88-5.65 0-19.35-2.62-20.35-2.9s-5.16-20.7-5.27-31a6.44 6.44 0 0 1 .94-4.18 5.51 5.51 0 0 1 1.84-1.36 25.65 25.65 0 0 1 11.38-2.87" transform="translate(-62.26 -46.66)" style="fill:#101010" class="cls-52"/><path class="cls-48" d="M323.5 173.06a3.6 3.6 0 0 1 3-.94 23.84 23.84 0 0 1 2.38.19c.36.05.77.14.81.53s-1.75 0-2.68.27a50.63 50.63 0 0 0 5.51.15 1.52 1.52 0 0 1 .64.06.51.51 0 0 1 .35.48.62.62 0 0 1-.25.42 3.65 3.65 0 0 1-1.89.77 14.67 14.67 0 0 1-8.38-.74" transform="translate(-62.26 -46.66)"/><path class="cls-47" d="M306.89 143.05c.15 8.58 1.37 16.36 1.2 24.94 6.66.49 10 1.78 16.14 4.5a3.24 3.24 0 0 1-.2 2.23c-.47.17-19.91-.65-21.51-2.13-1.44-1.32-4-21.47-4.11-31.75a6.44 6.44 0 0 1 .94-4.18 5.51 5.51 0 0 1 1.84-1.36 25.65 25.65 0 0 1 11.38-2.87" transform="translate(-62.26 -46.66)"/><path class="cls-11" d="M344.73 161.84a3.6 3.6 0 1 0 3.6-3.59 3.6 3.6 0 0 0-3.6 3.59Z" transform="translate(-62.26 -46.66)"/><g style="opacity:.7"><path class="cls-59" d="m336.73 63.46 1.31-.09a.48.48 0 0 1 .07.95l-1.25.09a.48.48 0 0 1-.07-1Zm3.27-.08a25.71 25.71 0 0 1 2.63.25.45.45 0 0 1 .39.52.46.46 0 0 1-.52.39c-.84-.11-1.69-.19-2.54-.22a.47.47 0 0 1 0-.94Zm4.61.62c.86.18 1.71.39 2.56.64a.45.45 0 1 1-.26.86c-.82-.24-1.65-.44-2.48-.61a.45.45 0 1 1 .18-.89Zm4.39 1.24c.83.3 1.64.65 2.43 1a.44.44 0 0 1 .21.58.44.44 0 0 1-.58.2c-.77-.36-1.56-.68-2.36-1a.43.43 0 0 1-.26-.56.43.43 0 0 1 .56-.26Zm4.23 1.95a24.61 24.61 0 0 1 2.21 1.44.42.42 0 0 1 .09.59.41.41 0 0 1-.58.08 21.69 21.69 0 0 0-2.14-1.38.41.41 0 0 1-.16-.58.43.43 0 0 1 .58-.16ZM357 69.9a16 16 0 0 1 1.81 2 .41.41 0 0 1-.07.56.4.4 0 0 1-.56-.07 14.33 14.33 0 0 0-1.73-1.84.41.41 0 1 1 .55-.61Zm2.9 3.63a11.88 11.88 0 0 1 1 2.48.39.39 0 0 1-.26.48.39.39 0 0 1-.48-.27 10.79 10.79 0 0 0-1-2.3.4.4 0 1 1 .69-.39Zm1.38 4.47a11.46 11.46 0 0 1-.08 2.68.37.37 0 0 1-.42.31.37.37 0 0 1-.31-.42 10.46 10.46 0 0 0 .06-2.5.38.38 0 1 1 .75-.08Zm-.52 4.63a16.93 16.93 0 0 1-1 2.47.35.35 0 0 1-.47.16.36.36 0 0 1-.17-.47 16 16 0 0 0 .93-2.37.36.36 0 0 1 .69.21Zm-1.95 4.2a19.21 19.21 0 0 1-1.59 2.17.34.34 0 0 1-.51-.44 17.73 17.73 0 0 0 1.51-2.05.34.34 0 0 1 .48-.11.35.35 0 0 1 .11.48Zm-2.97 3.55a19.36 19.36 0 0 1-2.07 1.62.32.32 0 0 1-.45-.09.32.32 0 0 1 .08-.44 17 17 0 0 0 2-1.6.33.33 0 1 1 .45.48ZM352.06 93a17.41 17.41 0 0 1-2.43 1 .31.31 0 0 1-.39-.19.31.31 0 0 1 .19-.39 16.24 16.24 0 0 0 2.34-1 .32.32 0 0 1 .29.56Zm-4.34 1.6a13 13 0 0 1-2.64.29.28.28 0 0 1-.29-.28.31.31 0 0 1 .29-.3 11.86 11.86 0 0 0 2.51-.29.3.3 0 0 1 .36.23.3.3 0 0 1-.23.35Zm-4.64.08a6.08 6.08 0 0 1-2.45-1.12.27.27 0 0 1-.05-.39.27.27 0 0 1 .38 0 5.7 5.7 0 0 0 2.24 1 .29.29 0 0 1-.12.56ZM339.27 92a7.79 7.79 0 0 1-1-2.5.28.28 0 0 1 .21-.31.25.25 0 0 1 .3.2 7.26 7.26 0 0 0 .92 2.31.27.27 0 0 1-.09.37.26.26 0 0 1-.37-.08Zm-.97-4.5a6 6 0 0 1 1.14-2.44.25.25 0 0 1 .34 0 .24.24 0 0 1 .05.34 5.27 5.27 0 0 0-1 2.24.25.25 0 1 1-.5-.1Zm2.54-3.86a11.88 11.88 0 0 1 2.24-1.41.23.23 0 0 1 .31.1.24.24 0 0 1-.11.31 11.92 11.92 0 0 0-2.14 1.36.23.23 0 0 1-.33 0 .24.24 0 0 1 0-.33Zm4.07-2.17a17.27 17.27 0 0 1 2.54-.67.21.21 0 0 1 .25.16.22.22 0 0 1-.17.25 17.85 17.85 0 0 0-2.48.68.22.22 0 1 1-.14-.42Zm4.49-.95a20.79 20.79 0 0 1 2.62-.09.2.2 0 0 1 0 .39 22 22 0 0 0-2.57.11.21.21 0 0 1-.23-.19.2.2 0 0 1 .18-.22Zm4.6.05a22.36 22.36 0 0 1 2.57.48.18.18 0 0 1 .14.22.18.18 0 0 1-.22.13 21.77 21.77 0 0 0-2.54-.45.18.18 0 0 1-.16-.21.19.19 0 0 1 .21-.17Z" transform="translate(-62.26 -46.66)"/><path class="cls-59" d="M358.44 81.62a18.88 18.88 0 0 1 2.39 1.06.18.18 0 0 1 .07.23.16.16 0 0 1-.22.07 18.32 18.32 0 0 0-2.36-1 .17.17 0 0 1 .11-.33Zm4.08 2.08a16.84 16.84 0 0 1 2 1.64.15.15 0 0 1-.2.22 18.19 18.19 0 0 0-2-1.6.15.15 0 0 1 0-.22.16.16 0 0 1 .22 0Zm3.39 3.06a17.61 17.61 0 0 1 1.54 2.12.14.14 0 0 1 0 .19.14.14 0 0 1-.19 0A16.92 16.92 0 0 0 365.7 87a.14.14 0 1 1 .21-.19Zm2.48 3.84a20.09 20.09 0 0 1 1 2.42.12.12 0 0 1-.07.16.12.12 0 0 1-.15-.08 21.5 21.5 0 0 0-1-2.39.13.13 0 0 1 .06-.17.13.13 0 0 1 .17.06Zm1.52 4.31a18.43 18.43 0 0 1 .46 2.57.11.11 0 0 1-.1.12.12.12 0 0 1-.11-.1 22.19 22.19 0 0 0-.46-2.5.11.11 0 1 1 .21 0Zm.56 4.53a14.25 14.25 0 0 1-.27 2.6.09.09 0 0 1-.18 0 14.61 14.61 0 0 0 .25-2.56.09.09 0 0 1 .1-.1.1.1 0 0 1 .1.1Zm-.79 4.49a12.75 12.75 0 0 1-1.14 2.35.08.08 0 1 1-.14-.08 12.75 12.75 0 0 0 1.11-2.33.09.09 0 0 1 .12-.05.08.08 0 0 1 .05.11Zm-2.28 3.94a16.07 16.07 0 0 1-1.83 1.86.07.07 0 0 1-.1 0 .06.06 0 0 1 0-.09 16.54 16.54 0 0 0 1.8-1.85.08.08 0 0 1 .11 0 .08.08 0 0 1 0 .11Zm-3.4 3.06a23.26 23.26 0 0 1-2.22 1.37.05.05 0 0 1-.08 0 .08.08 0 0 1 0-.08 20.73 20.73 0 0 0 2.2-1.37.06.06 0 0 1 .08.1Zm-3.94 2.25q-1.19.54-2.4 1h-.06v-.06c.81-.31 1.61-.64 2.39-1h.07a.05.05 0 0 1 0 .07Zm-4.25 1.62-2.5.71 2.5-.72Zm-4.4 1.2-2.56.49 2.55-.5Zm-4.49.73-2.58.29 2.58-.31Z" transform="translate(-62.26 -46.66)"/><path class="cls-59" d="m280.13 70.51-1.28.06 1.28-.06z"/></g><path d="M322 54.17c-.13-.08 8.1-.71 8.1-.71l5.5 10.61-8-5.1-8.33 4-17.59-2.18Z" transform="translate(-62.26 -46.66)" style="fill:#bde0f4"/><path class="cls-10" d="m239.38 14.08 33.91 3.33-7.99-5.11-25.92 1.78z"/><path class="cls-9" d="M239.38 14.08 270.72 0l-2.93 6.8-28.41 7.28 25.92-1.78-4.81 11.82-21.11-10.04z"/></g></g></svg>